<svg width="114" height="40" viewBox="0 0 114 40" fill="none" xmlns="http://www.w3.org/2000/svg">
<g clip-path="url(#clip0_5057_44138)">
<path d="M20.0003 0.75293C2.80004 0.75293 0 3.50023 0 20.3765C0 37.2528 2.80004 40.0001 20.0003 40.0001C37.2006 40.0001 40 37.2528 40 20.3765C40 3.50023 37.2006 0.75293 20.0003 0.75293Z" fill="#FCEE20"/>
<g clip-path="url(#clip1_5057_44138)">
<circle cx="18.2389" cy="22.2437" r="10.1" transform="rotate(25.4073 18.2389 22.2437)" fill="white"/>
<rect x="19.9043" y="6.26172" width="11.918" height="4.04" rx="2.02" transform="rotate(25.4073 19.9043 6.26172)" fill="white"/>
<path d="M30.8731 25.6325C30.9317 25.3885 30.9857 25.1461 31.0305 24.9072C31.0625 24.7515 31.0852 24.5991 31.1064 24.4422C31.572 21.292 30.8551 18.116 29.1603 15.5282L29.1634 15.5297L30.5769 12.5539C30.9833 11.6983 30.6294 10.6834 29.7915 10.2855L28.935 9.87864L29.1593 9.40645C30.0881 7.45112 29.2819 5.12224 27.3633 4.21094C25.4447 3.29964 23.1333 4.14766 22.2046 6.10299L21.9803 6.57518L21.1238 6.16835C20.2828 5.76892 19.2773 6.14193 18.8724 6.99441L17.4589 9.97019C14.3823 10.2916 11.4676 11.7425 9.3201 14.0939C9.21177 14.2094 9.11428 14.3263 9.01068 14.448C8.84603 14.6339 8.69383 14.8257 8.54486 15.0268C8.02335 15.7229 7.56143 16.4784 7.17306 17.2961C6.7847 18.1137 6.48634 18.9508 6.2794 19.7963C6.22075 20.0403 6.16672 20.2827 6.12504 20.5231C6.09457 20.6756 6.06722 20.8297 6.04609 20.9867C5.24375 26.3967 7.94123 31.8884 13.0616 34.3205C18.1819 36.7526 24.1475 35.3797 27.8324 31.3349C27.9407 31.2194 28.0459 31.1023 28.1449 30.9823C28.3033 30.7935 28.4555 30.6016 28.6076 30.402C29.1291 29.7059 29.5925 28.9472 29.9809 28.1296C30.3693 27.312 30.663 26.4766 30.8731 25.6325ZM22.91 6.44198C23.6491 4.88596 25.494 4.20859 27.0201 4.93349C28.5462 5.65839 29.1868 7.5163 28.4477 9.07232L28.2234 9.54451L22.6826 6.91269L22.9069 6.4405L22.91 6.44198ZM19.5841 7.33636C19.7994 6.88318 20.3353 6.68717 20.7775 6.89725L29.4453 11.0144C29.8907 11.2259 30.0774 11.7651 29.8621 12.2183L28.7934 14.4684L18.5154 9.58641L19.5841 7.33636ZM19.9323 24.6694L20.5999 28.5599L18.7265 25.1104L14.5879 31.107L16.6242 24.1118L12.7699 24.8407L16.2073 22.9L10.3312 18.7962L17.2233 20.7609L16.5557 16.8704L18.4291 20.3199L22.5645 14.3218L20.5314 21.3185L24.3888 20.5911L20.9514 22.5317L26.829 26.6324L19.9354 24.6709L19.9323 24.6694Z" fill="black"/>
</g>
<path d="M50.418 31.1943L54.7109 20.9199H58.1807L58.7646 31.1943L63.0801 20.9199H67.1562L60.3701 36.2227H55.8164L55.3613 27.1074L51.7402 36.2227H47.1865L45.7773 20.9199L49.8545 20.877L50.418 31.1943ZM69.6846 36.2012H65.6943L68.3613 20.8984H72.3506L69.6846 36.2012ZM82.3086 29.3584L83.8252 20.8984H87.75L85.084 36.2012H81.5059L77.5156 27.7412L75.999 36.2012H72.0742L74.7402 20.8984H78.3398L82.3086 29.3584ZM93.3291 20.7822C93.8387 20.7823 94.2797 20.8817 94.6514 21.0801C95.0231 21.2785 95.3062 21.5546 95.5 21.9072C95.6937 22.2604 95.79 22.6729 95.79 23.1436H94.4258C94.4078 22.7843 94.2861 22.4977 94.0615 22.2842C93.8372 22.07 93.5432 21.9629 93.1807 21.9629C92.763 21.963 92.3979 22.0861 92.085 22.3301C91.7712 22.5753 91.5313 22.9008 91.3652 23.3066C91.1993 23.7121 91.1162 24.1478 91.1162 24.6123C91.1163 25.0835 91.2409 25.469 91.4902 25.7695C91.7386 26.0697 92.0723 26.2207 92.4902 26.2207C92.8894 26.2206 93.2194 26.1151 93.4805 25.9043C93.7417 25.6938 93.9534 25.399 94.1133 25.0215H95.4863C95.2898 25.7649 94.9249 26.348 94.3936 26.7695C93.8623 27.1904 93.2178 27.4014 92.4619 27.4014C91.9026 27.4013 91.4154 27.2814 91.001 27.043C90.5859 26.8049 90.2693 26.4749 90.0518 26.0537C89.8333 25.6319 89.7237 25.1519 89.7236 24.6123C89.7236 23.9 89.8709 23.2521 90.166 22.6699C90.4611 22.0872 90.8807 21.6266 91.4248 21.2891C91.9684 20.9515 92.604 20.7822 93.3291 20.7822ZM99.7676 20.7822C100.314 20.7822 100.799 20.9022 101.22 21.1406C101.641 21.379 101.967 21.7112 102.197 22.1348C102.428 22.5593 102.543 23.0385 102.543 23.5713C102.543 24.2833 102.391 24.9319 102.086 25.5146C101.782 26.0964 101.353 26.557 100.8 26.8945C100.247 27.2325 99.6135 27.4014 98.9004 27.4014C98.354 27.4013 97.8684 27.2814 97.4443 27.043C97.0202 26.8048 96.6923 26.4734 96.4619 26.0488C96.2316 25.6243 96.1163 25.1451 96.1162 24.6123C96.1162 23.9 96.2701 23.2521 96.5771 22.6699C96.8851 22.0872 97.317 21.6266 97.873 21.2891C98.4291 20.9516 99.0605 20.7822 99.7676 20.7822ZM88.6865 26.0312C88.8443 26.0368 88.9909 26.1034 89.0986 26.2197C89.2063 26.3363 89.2623 26.4884 89.2568 26.6475C89.2501 26.8437 89.1679 27.0263 89.0254 27.1602C88.8829 27.2942 88.6966 27.3632 88.502 27.3564C88.3444 27.3508 88.1985 27.284 88.0908 27.168C87.9831 27.0514 87.9261 26.8993 87.9316 26.7402C87.9381 26.5529 88.0136 26.3781 88.1445 26.2461C88.1506 26.2397 88.1567 26.2337 88.1631 26.2275C88.3056 26.0934 88.4918 26.0245 88.6865 26.0312ZM106.668 25.6172L109.25 20.8389H111.048L109.913 27.3457H108.586L109.36 22.9863L106.926 27.3457H105.802L104.88 22.9863L104.114 27.3457H102.787L103.93 20.8389H105.718L106.668 25.6172ZM99.6846 21.9629C99.2546 21.9629 98.8727 22.0858 98.541 22.3301C98.2091 22.575 97.9542 22.8985 97.7764 23.3018C97.5985 23.7045 97.5088 24.135 97.5088 24.5938C97.5088 24.8971 97.571 25.1726 97.6934 25.4209C97.8163 25.6684 97.9903 25.8638 98.2139 26.0059C98.4382 26.1489 98.698 26.2197 98.9932 26.2197C99.4234 26.2197 99.802 26.0968 100.128 25.8525C100.454 25.6074 100.705 25.2862 100.884 24.8867C101.062 24.487 101.15 24.0571 101.15 23.5986C101.15 23.1273 101.017 22.738 100.75 22.4277C100.483 22.1182 100.127 21.9629 99.6846 21.9629ZM74.9307 3.77734C76.2459 3.77736 77.4092 4.06226 78.4209 4.62988H78.4219C79.435 5.19941 80.2194 5.98674 80.7754 6.99219C81.3312 7.99753 81.6103 9.12599 81.6104 10.3789C81.6104 12.0699 81.2446 13.5975 80.5156 14.959C79.7848 16.3222 78.7625 17.3942 77.4473 18.1738C76.132 18.9535 74.6344 19.3437 72.959 19.3438C71.6438 19.3438 70.4784 19.0587 69.4668 18.4912C68.4551 17.9217 67.6703 17.1347 67.1143 16.1289C66.5582 15.1231 66.2793 13.9944 66.2793 12.7412C66.2793 11.0646 66.6487 9.54597 67.3848 8.18262C68.1227 6.82089 69.1486 5.74571 70.4639 4.95898C71.7792 4.17229 73.2693 3.77734 74.9307 3.77734ZM91.2656 3.77734C92.5809 3.77734 93.7442 4.06228 94.7559 4.62988C95.7694 5.19942 96.5533 5.98665 97.1094 6.99219C97.6653 7.99762 97.9443 9.12584 97.9443 10.3789C97.9443 12.07 97.5787 13.5974 96.8496 14.959C96.1187 16.3224 95.0966 17.3941 93.7812 18.1738C92.466 18.9534 90.9692 19.3437 89.2939 19.3438C87.9786 19.3438 86.8125 19.0589 85.8008 18.4912C84.7892 17.9217 84.0056 17.1347 83.4492 16.1289C82.8932 15.1231 82.6143 13.9944 82.6143 12.7412C82.6143 11.0646 82.9836 9.54597 83.7197 8.18262C84.4577 6.82086 85.4835 5.74572 86.7988 4.95898C88.1142 4.17225 89.6042 3.77735 91.2656 3.77734ZM55.4473 14.3594L60.7178 3.90918H65.9209L63.2529 19.2119H59.459L61.1074 9.94336L56.1416 19.2119H52.9756L51.2188 9.94336L49.5713 19.2119H45.7773L48.4434 3.90918H53.6699L55.4473 14.3594ZM108.558 12.3701L110.074 3.90918H113.999L111.333 19.2119H107.754L103.764 10.752L102.247 19.2119H98.3223L100.988 3.90918H104.589L108.558 12.3701ZM74.6914 7.10059C73.8108 7.10068 73.0339 7.36074 72.3613 7.87695C71.6888 8.39509 71.1744 9.08007 70.8213 9.93262C70.4667 10.7852 70.29 11.6986 70.29 12.6758C70.29 13.6229 70.5531 14.4171 71.0811 15.0596C71.609 15.7002 72.3208 16.0205 73.2178 16.0205C74.0989 16.0205 74.8725 15.7623 75.5381 15.2441C76.2035 14.7261 76.7115 14.0409 77.0664 13.1904C77.4195 12.3375 77.5977 11.4225 77.5977 10.4453C77.5977 9.49856 77.3365 8.70439 76.8174 8.06348C76.2967 7.4212 75.5882 7.10059 74.6914 7.10059ZM91.0273 7.10059C90.1466 7.10059 89.3689 7.36065 88.6963 7.87695C88.0238 8.39504 87.5103 9.08022 87.1572 9.93262C86.8026 10.7852 86.626 11.6986 86.626 12.6758C86.626 13.6229 86.889 14.4171 87.417 15.0596C87.9449 15.6999 88.6561 16.0205 89.5527 16.0205C90.4338 16.0205 91.2074 15.7623 91.873 15.2441C92.5385 14.7261 93.0465 14.041 93.4014 13.1904C93.7545 12.3375 93.9326 11.4225 93.9326 10.4453C93.9326 9.49856 93.6715 8.70439 93.1523 8.06348C92.6318 7.42133 91.924 7.10067 91.0273 7.10059Z" fill="white"/>
</g>
<defs>
<clipPath id="clip0_5057_44138">
<rect width="114" height="40" fill="white"/>
</clipPath>
<clipPath id="clip1_5057_44138">
<rect width="25.25" height="33.33" fill="white" transform="translate(15.959 -1.20215) rotate(25.4073)"/>
</clipPath>
</defs>
</svg>
