<svg width="134" height="74" viewBox="0 0 134 74" fill="none" xmlns="http://www.w3.org/2000/svg">
<g clip-path="url(#clip0_3618_280063)">
<path d="M12.2067 34.0166C8.73667 34.0166 5.68597 33.5255 3.05464 32.5473C1.81298 32.0846 1.15926 30.733 1.56629 29.4829L2.49137 26.6458C2.90662 25.3713 4.27574 24.6691 5.58318 25.0385C7.92671 25.7001 10.0688 26.0329 12.0135 26.0329C13.4073 26.0329 14.4228 25.8746 15.056 25.5621C15.722 25.2171 16.0551 24.7178 16.0551 24.0603C16.0551 23.622 15.8824 23.2445 15.5329 22.932C15.1834 22.587 14.4845 22.2135 13.4402 21.8036C12.3917 21.3977 10.8253 20.8944 8.73256 20.3018C6.1629 19.5509 4.16473 18.3292 2.73805 16.6408C1.31549 14.9198 0.600098 12.9472 0.600098 10.7271C0.600098 7.28111 1.74308 4.68346 4.02494 2.93005C6.33969 1.14416 9.44795 0.251221 13.3497 0.251221C15.3808 0.251221 17.3789 0.470397 19.3442 0.908751C20.405 1.12793 21.3958 1.40799 22.3291 1.74487C23.6119 2.20758 24.2615 3.62005 23.801 4.8864L22.8184 7.60176C22.3744 8.82347 21.0464 9.49723 19.78 9.14005C18.9002 8.89247 18.0902 8.7017 17.3502 8.5637C16.0509 8.28364 14.7805 8.14158 13.543 8.14158C11.4502 8.14158 10.4018 8.70576 10.4018 9.83411C10.4018 10.3983 10.7348 10.8813 11.4009 11.2912C12.0998 11.6687 13.5101 12.1517 15.6357 12.7484C18.966 13.6251 21.4863 14.9726 23.2008 16.7869C24.9152 18.5728 25.7704 20.7158 25.7704 23.2201C25.7704 26.6945 24.6274 29.3733 22.3456 31.2485C20.0637 33.0953 16.6841 34.0207 12.215 34.0207H12.2067V34.0166Z" fill="#6254FF"/>
<path d="M89.7406 73.3833C86.7146 73.3833 84.0133 73.0098 81.6328 72.259C79.8484 71.6988 78.8658 69.8074 79.4414 68.0459L79.8279 66.8607C80.3829 65.1641 82.1837 64.2144 83.9352 64.6649C85.9663 65.1844 87.8411 65.4442 89.5556 65.4442C90.9411 65.4442 91.9526 65.2899 92.5816 64.9774C93.2436 64.6365 93.5725 64.1372 93.5725 63.4838C93.5725 63.0495 93.3998 62.6761 93.0544 62.3635C92.7091 62.0226 92.0142 61.6492 90.974 61.2433C89.9338 60.8374 88.3756 60.3422 86.2911 59.7497C83.7379 59.0028 81.752 57.7892 80.3336 56.1089C78.9151 54.3961 78.2039 52.4356 78.2039 50.2276C78.2039 46.806 79.3386 44.2206 81.6081 42.4793C83.9106 40.7056 86.9983 39.8208 90.8754 39.8208C92.8941 39.8208 94.8799 40.04 96.8329 40.4743C97.4907 40.6123 98.1238 40.7706 98.7282 40.9492C100.587 41.5052 101.606 43.4737 100.953 45.2799L100.566 46.3515C99.974 47.9872 98.2102 48.8882 96.5081 48.4539C95.9201 48.3038 95.3692 48.1779 94.847 48.0805C93.556 47.8005 92.2938 47.6584 91.0645 47.6584C88.9841 47.6584 87.9439 48.2185 87.9439 49.3388C87.9439 49.8989 88.2728 50.3819 88.9348 50.7837C89.6296 51.1571 91.0316 51.6401 93.1449 52.2327C96.4546 53.1053 98.9626 54.4407 100.665 56.2469C102.367 58.0206 103.218 60.1515 103.218 62.6436C103.218 66.0977 102.083 68.7602 99.8137 70.6233C97.5441 72.4578 94.1892 73.3792 89.7447 73.3792H89.7406V73.3833Z" fill="#6254FF"/>
<path d="M110.286 40.3323H132.253C132.886 40.3323 133.396 40.8112 133.396 41.4079V46.4327C133.396 47.0293 132.886 47.5083 132.253 47.5083H120.741C120.108 47.5083 119.598 47.9872 119.598 48.5839V52.3302C119.598 52.9268 120.108 53.4058 120.741 53.4058H131.196C131.83 53.4058 132.339 53.8847 132.339 54.4813V58.2764C132.339 58.873 131.83 59.3519 131.196 59.3519H120.741C120.108 59.3519 119.598 59.8309 119.598 60.4275V64.5513C119.598 65.1479 120.108 65.6269 120.741 65.6269H132.253C132.886 65.6269 133.396 66.1058 133.396 66.7025V71.7273C133.396 72.324 132.886 72.8029 132.253 72.8029H110.286C109.652 72.8029 109.143 72.324 109.143 71.7273V41.4079C109.143 40.8112 109.652 40.3323 110.286 40.3323Z" fill="#6254FF"/>
<path d="M60.5288 50.5482V71.0331C60.5288 72.5917 61.8074 73.854 63.3862 73.854H68.5913C70.1701 73.854 71.4488 72.5917 71.4488 71.0331V50.2722L66.1121 56.263L60.5247 50.5482H60.5288Z" fill="#6254FF"/>
<path d="M71.2841 26.7473V2.80834C71.2841 1.33905 70.0753 0.145752 68.587 0.145752H62.9913C61.503 0.145752 60.2942 1.33905 60.2942 2.80834V27.2181L66.0297 21.5764L71.2841 26.7473Z" fill="#6254FF"/>
<path d="M73.447 28.9067C74.7297 30.5789 75.589 32.6449 75.9262 34.8853C76.1071 36.0868 75.844 37.3247 75.2067 38.2623C74.5694 39.1999 73.6279 39.7478 72.637 39.7478C71.4324 39.7478 70.3675 38.7656 70.0345 37.3409C69.6973 35.9163 70.1743 34.3902 71.1939 33.5987C71.5105 33.3552 71.8476 33.1522 72.2012 32.9899L71.0171 31.7316L66.1615 26.5607L60.8659 32.2025L60.1259 32.9899C60.4836 33.1482 60.8207 33.3511 61.1332 33.5987C62.1528 34.3902 62.6256 35.9163 62.2926 37.3409C61.9555 38.7656 60.8947 39.7478 59.69 39.7478C58.6951 39.7478 57.7536 39.1999 57.1204 38.2623C56.4872 37.3247 56.22 36.0868 56.4009 34.8853C56.738 32.6489 57.5973 30.5789 58.8801 28.9067L53.823 22.6926V37.6778C53.823 41.5053 56.7257 44.6103 60.3109 44.6103H60.3725L60.7097 44.9837L65.8696 50.6985L70.7992 44.7077L70.8773 44.6103H72.0285C75.6096 44.6103 78.5164 41.5053 78.5164 37.6778V22.6926L73.4593 28.9067H73.447Z" fill="url(#paint0_linear_3618_280063)"/>
<path fill-rule="evenodd" clip-rule="evenodd" d="M31.728 0.551666C30.659 0.551666 29.7915 1.44055 29.7915 2.53237V31.0375C29.7915 32.1294 30.659 33.0182 31.728 33.0182H37.8088C38.8778 33.0182 39.7453 32.1294 39.7453 31.0375V23.9102C39.7453 22.8184 40.6129 21.9295 41.6818 21.9295C44.3543 21.9295 46.78 21.5033 48.9632 20.655C51.1752 19.7743 52.9102 18.5282 54.1683 16.925C55.4593 15.3177 56.1048 13.4506 56.1048 11.3076C56.1048 7.91032 54.8015 5.26803 52.1907 3.37661C49.6087 1.48926 45.9536 0.547607 41.2213 0.547607H31.728V0.551666ZM44.5969 8.93721L42.4671 3.45779L40.3374 8.93721L34.7869 11.0397L40.3374 13.1422L42.4671 18.6216L44.5969 13.1422L50.1473 11.0397L44.5969 8.93721Z" fill="#6254FF"/>
<path d="M83.2773 0.145752H91.3974C91.6687 0.145752 91.9278 0.275634 92.0881 0.494811L103.115 15.4638C103.608 16.1335 104.665 15.7844 104.665 14.9524V1.00622C104.665 0.531341 105.052 0.145752 105.524 0.145752H112.193C112.666 0.145752 113.052 0.531341 113.052 1.00622V31.5936C113.052 32.0684 112.666 32.454 112.193 32.454H104.102C103.835 32.454 103.584 32.3282 103.423 32.1171L92.2937 17.6434C91.7921 16.994 90.756 17.3471 90.756 18.171V31.5936C90.756 32.0684 90.3695 32.454 89.8967 32.454H83.2773C82.8044 32.454 82.418 32.0684 82.418 31.5936V1.00622C82.418 0.531341 82.8003 0.145752 83.2732 0.145752H83.2773Z" fill="#6254FF"/>
<path d="M112.645 22.035V11.0559C115.614 13.3086 119.511 15.1066 123.993 16.2877L124.98 16.5475L124.77 16.6003C120.042 17.8423 115.889 19.7053 112.645 22.035Z" fill="#6254FF"/>
<path d="M48.4493 73.3832C42.5247 73.3832 38.8984 70.676 37.5745 65.2615L36.6248 61.3934C36.4891 60.8414 35.9916 60.4559 35.416 60.4559C34.7294 60.4559 34.1702 61.0038 34.1702 61.6857V71.4106C34.1702 72.0885 33.6152 72.6405 32.9245 72.6405H25.0592C24.3726 72.6405 23.8135 72.0925 23.8135 71.4106V41.7528C23.8135 41.0749 24.3685 40.5229 25.0592 40.5229H38.1419C40.8513 40.5229 43.2319 40.9288 45.2835 41.7365C47.3639 42.5158 48.9715 43.6198 50.1062 45.0526C51.241 46.4854 51.8084 48.1333 51.8084 50.0003C51.8084 52.0866 51.2903 53.844 50.2501 55.2768C49.3826 56.4823 48.0957 57.501 46.3895 58.3371C45.8797 58.5888 45.596 59.1449 45.7152 59.6969C45.8879 60.5046 46.077 61.2554 46.2785 61.9495C46.6567 63.1306 47.1789 63.9586 47.8408 64.4254C48.5028 64.8922 49.4648 65.1276 50.7229 65.1276C50.9162 65.1276 51.1588 65.1154 51.4466 65.091C52.1743 65.0302 52.8033 65.5903 52.8033 66.3127V71.6704C52.8033 72.2062 52.4498 72.6851 51.9317 72.8475C50.7517 73.2087 49.5923 73.3873 48.4534 73.3873H48.4493V73.3832ZM35.9669 53.9211C38.2981 53.9211 39.9386 53.6736 40.8842 53.1743C41.8628 52.6467 42.352 51.7578 42.352 50.5117C42.352 49.4524 41.9573 48.6893 41.1679 48.2225C40.3785 47.7233 39.1369 47.4757 37.4306 47.4757H35.4119C34.7253 47.4757 34.1661 48.0237 34.1661 48.7055V52.6913C34.1661 53.3691 34.7212 53.9211 35.4119 53.9211H35.9669Z" fill="#6254FF"/>
<path d="M23.838 61.3934C20.5941 59.0637 16.4415 57.2007 11.7133 55.9587L11.5037 55.9059L12.4904 55.6461C16.9678 54.465 20.8696 52.671 23.838 50.4143V61.3934Z" fill="#6254FF"/>
</g>
<defs>
<linearGradient id="paint0_linear_3618_280063" x1="65.9723" y1="28.5576" x2="66.1647" y2="50.6986" gradientUnits="userSpaceOnUse">
<stop stop-color="#F99622"/>
<stop offset="0.564623" stop-color="#FDCA16"/>
<stop offset="1" stop-color="#FEAB16"/>
</linearGradient>
<clipPath id="clip0_3618_280063">
<rect width="132.8" height="73.7083" fill="white" transform="translate(0.600098 0.145752)"/>
</clipPath>
</defs>
</svg>
